<?xml version="1.0" encoding="UTF-8" standalone="no"?>
<!-- Created with Inkscape (http://www.inkscape.org/) -->

<svg
   width="512"
   height="512"
   viewBox="0 0 512 512"
   version="1.1"
   id="svg5"
   inkscape:version="1.1.2 (0a00cf5339, 2022-02-04)"
   sodipodi:docname="todays-menu.svg"
   inkscape:export-filename="/home/kanru/todays-menu.png"
   inkscape:export-xdpi="96"
   inkscape:export-ydpi="96"
   xmlns:inkscape="http://www.inkscape.org/namespaces/inkscape"
   xmlns:sodipodi="http://sodipodi.sourceforge.net/DTD/sodipodi-0.dtd"
   xmlns="http://www.w3.org/2000/svg"
   xmlns:svg="http://www.w3.org/2000/svg">
  <sodipodi:namedview
     id="namedview7"
     pagecolor="#ffffff"
     bordercolor="#666666"
     borderopacity="1.0"
     inkscape:pageshadow="2"
     inkscape:pageopacity="0.0"
     inkscape:pagecheckerboard="false"
     inkscape:document-units="px"
     showgrid="false"
     showguides="true"
     inkscape:guide-bbox="true"
     inkscape:zoom="0.1"
     inkscape:cx="255"
     inkscape:cy="250"
     inkscape:window-width="2560"
     inkscape:window-height="1371"
     inkscape:window-x="0"
     inkscape:window-y="0"
     inkscape:window-maximized="1"
     inkscape:current-layer="layer1" />
  <defs
     id="defs2" />
  <g
     inkscape:label="Layer 1"
     inkscape:groupmode="layer"
     id="layer1">
    <g
       id="g2472"
       transform="matrix(0.9991278,0,0,0.97760871,1.6430968,28.222741)"
       style="stroke-width:10.11828592;stroke-miterlimit:4;stroke-dasharray:none">
      <g
         id="g1725"
         transform="matrix(1,0,0,1.0245744,0,-1.4165864)"
         style="stroke-width:9.99620599;stroke-miterlimit:4;stroke-dasharray:none">
        <rect
           style="fill:#ffffff;stroke:#000000;stroke-width:9.99620599;stroke-miterlimit:4;stroke-dasharray:none"
           id="rect53"
           width="398.85785"
           height="362.81387"
           x="54.582138"
           y="57.895306"
           ry="37.046036"
           rx="37.138916" />
        <path
           id="rect559"
           style="fill:#ff8080;stroke:#000000;stroke-width:9.99620599;stroke-miterlimit:4;stroke-dasharray:none"
           d="M 91.438255,57.644875 H 416.58387 c 20.55702,0 37.10653,16.549512 37.10653,37.106529 V 158.65302 H 54.331726 V 94.751404 c 0,-20.557017 16.549512,-37.106529 37.106529,-37.106529 z"
           sodipodi:nodetypes="sssccss" />
      </g>
      <g
         id="g2349"
         transform="translate(9.2921549)"
         style="stroke-width:10.11828592;stroke-miterlimit:4;stroke-dasharray:none">
        <g
           id="g2002"
           transform="translate(9.4653979,-28.814879)"
           style="stroke-width:10.11828592;stroke-miterlimit:4;stroke-dasharray:none">
          <path
             style="fill:#000000;stroke:#000000;stroke-width:10.11828592;stroke-miterlimit:4;stroke-dasharray:none"
             id="path1773"
             sodipodi:type="arc"
             sodipodi:cx="136.55714"
             sodipodi:cy="106.41365"
             sodipodi:rx="29.491085"
             sodipodi:ry="29.491085"
             sodipodi:start="0"
             sodipodi:end="3.1415927"
             sodipodi:arc-type="slice"
             d="m 166.04823,106.41365 a 29.491085,29.491085 0 0 1 -14.74554,25.54003 29.491085,29.491085 0 0 1 -29.49109,0 29.491085,29.491085 0 0 1 -14.74554,-25.54003 h 29.49108 z" />
          <rect
             style="fill:#000000;stroke:#000000;stroke-width:10.11828592;stroke-miterlimit:4;stroke-dasharray:none"
             id="rect1819"
             width="21.897606"
             height="65.692818"
             x="125.26202"
             y="50.704441"
             ry="5.2560992"
             rx="5.1428947" />
        </g>
        <g
           id="g2008"
           transform="translate(108.16176,-28.814879)"
           style="stroke-width:10.11828592;stroke-miterlimit:4;stroke-dasharray:none">
          <path
             style="fill:#000000;stroke:#000000;stroke-width:10.11828592;stroke-miterlimit:4;stroke-dasharray:none"
             id="path2004"
             sodipodi:type="arc"
             sodipodi:cx="136.55714"
             sodipodi:cy="106.41365"
             sodipodi:rx="29.491085"
             sodipodi:ry="29.491085"
             sodipodi:start="0"
             sodipodi:end="3.1415927"
             sodipodi:arc-type="slice"
             d="m 166.04823,106.41365 a 29.491085,29.491085 0 0 1 -14.74554,25.54003 29.491085,29.491085 0 0 1 -29.49109,0 29.491085,29.491085 0 0 1 -14.74554,-25.54003 h 29.49108 z" />
          <rect
             style="fill:#000000;stroke:#000000;stroke-width:10.11828592;stroke-miterlimit:4;stroke-dasharray:none"
             id="rect2006"
             width="21.897606"
             height="65.692818"
             x="125.26202"
             y="50.704441"
             ry="5.2560992"
             rx="5.1428947" />
        </g>
        <g
           id="g2014"
           transform="translate(206.85813,-28.814879)"
           style="stroke-width:10.11828592;stroke-miterlimit:4;stroke-dasharray:none">
          <path
             style="fill:#000000;stroke:#000000;stroke-width:10.11828592;stroke-miterlimit:4;stroke-dasharray:none"
             id="path2010"
             sodipodi:type="arc"
             sodipodi:cx="136.55714"
             sodipodi:cy="106.41365"
             sodipodi:rx="29.491085"
             sodipodi:ry="29.491085"
             sodipodi:start="0"
             sodipodi:end="3.1415927"
             sodipodi:arc-type="slice"
             d="m 166.04823,106.41365 a 29.491085,29.491085 0 0 1 -14.74554,25.54003 29.491085,29.491085 0 0 1 -29.49109,0 29.491085,29.491085 0 0 1 -14.74554,-25.54003 h 29.49108 z" />
          <rect
             style="fill:#000000;stroke:#000000;stroke-width:10.11828592;stroke-miterlimit:4;stroke-dasharray:none"
             id="rect2012"
             width="21.897606"
             height="65.692818"
             x="125.26202"
             y="50.704441"
             ry="5.2560992"
             rx="5.1428947" />
        </g>
      </g>
      <g
         id="g2258"
         transform="translate(-5.2017399)"
         style="stroke-width:10.11828592;stroke-miterlimit:4;stroke-dasharray:none">
        <rect
           style="fill:#cccccc;stroke:none;stroke-width:10.11828592;stroke-miterlimit:4;stroke-dasharray:none"
           id="rect2082"
           width="66.607269"
           height="58.662628"
           x="92.806221"
           y="222.76642" />
        <rect
           style="fill:#cccccc;stroke:none;stroke-width:10.11828592;stroke-miterlimit:4;stroke-dasharray:none"
           id="rect2150"
           width="66.607269"
           height="58.662628"
           x="92.806221"
           y="307.72318" />
        <rect
           style="fill:#cccccc;stroke:none;stroke-width:10.11828592;stroke-miterlimit:4;stroke-dasharray:none"
           id="rect2152"
           width="66.607269"
           height="58.662628"
           x="270.27679"
           y="307.72318" />
        <rect
           style="fill:#cccccc;stroke:none;stroke-width:10.11828592;stroke-miterlimit:4;stroke-dasharray:none"
           id="rect2156"
           width="66.607269"
           height="58.662628"
           x="181.54152"
           y="307.72318" />
        <rect
           style="fill:#cccccc;stroke:none;stroke-width:10.11828592;stroke-miterlimit:4;stroke-dasharray:none"
           id="rect2240"
           width="66.607269"
           height="58.662628"
           x="359.01212"
           y="222.76642" />
        <rect
           style="fill:#cccccc;stroke:none;stroke-width:10.11828592;stroke-miterlimit:4;stroke-dasharray:none"
           id="rect2244"
           width="66.607269"
           height="58.662628"
           x="181.54152"
           y="222.76642" />
        <rect
           style="fill:#cccccc;stroke:none;stroke-width:10.11828592;stroke-miterlimit:4;stroke-dasharray:none"
           id="rect2246"
           width="66.607269"
           height="58.662628"
           x="270.27679"
           y="222.76642" />
        <rect
           style="fill:#cccccc;stroke:none;stroke-width:10.11828592;stroke-miterlimit:4;stroke-dasharray:none"
           id="rect2248"
           width="66.607269"
           height="58.662628"
           x="359.01212"
           y="307.72318" />
      </g>
    </g>
    <g
       id="g8466"
       transform="matrix(0.72348548,0,0,0.72348548,517.78745,209.58126)"
       style="stroke-width:13.822;stroke-miterlimit:4;stroke-dasharray:none">
      <g
         id="g3831"
         transform="translate(-63.55628,32.871094)"
         style="stroke:#000000;stroke-width:13.822;stroke-miterlimit:4;stroke-dasharray:none">
        <path
           id="path3462"
           style="fill:#ffdd55;stroke:#000000;stroke-width:13.822;stroke-miterlimit:4;stroke-dasharray:none"
           d="m -226.33741,211.25529 c 0.0788,35.71077 6.79007,64.4066 15.00293,64.14947 8.21286,-0.25713 14.82835,-29.3702 14.78893,-65.08222 -0.0394,-35.71202 -6.71889,-141.981775 -14.93194,-141.896055 -8.21305,0.0857 -14.85992,107.116375 -14.85992,142.828805"
           sodipodi:nodetypes="csssc" />
        <path
           id="path2878"
           style="fill:#ffdd55;stroke:#000000;stroke-width:13.822;stroke-miterlimit:4;stroke-dasharray:none"
           d="m -264.77522,32.859521 c 0.28231,-41.0632203 24.31162,-74.060051 53.7175,-73.764381 29.40589,0.295672 53.09246,33.7722857 52.9513,74.836931 -0.14116,41.06464 -24.05677,59.77294 -53.46333,59.67438 -29.40656,-0.0986 -53.20547,-19.68182 -53.20547,-60.74693"
           sodipodi:nodetypes="csssc" />
      </g>
      <g
         id="g3837"
         transform="translate(-236.7863,35.245592)"
         style="stroke:#000000;stroke-width:13.822;stroke-miterlimit:4;stroke-dasharray:none">
        <path
           id="path3835"
           style="fill:#ffdd55;stroke:#000000;stroke-width:13.822;stroke-miterlimit:4;stroke-dasharray:none"
           d="m -226.31603,210.63346 c 0.0788,35.71077 6.79075,65.02843 15.00361,64.7713 8.21286,-0.25713 14.82835,-29.3702 14.78893,-65.08222 -0.0394,-35.71202 -6.71889,-141.981775 -14.93194,-141.896055 -8.21305,0.0857 -14.8606,106.494545 -14.8606,142.206975"
           sodipodi:nodetypes="csssc" />
        <path
           id="path3833"
           style="fill:#ffdd55;stroke:#000000;stroke-width:13.822;stroke-miterlimit:4;stroke-dasharray:none"
           d="m -281.18016,-41.062326 c -4.21658,9.279772 -3.09883,45.3378606 -3.09883,45.3378606 0,0 -1.56466,28.3237484 -4.06525,31.8009204 -2.5006,3.477172 -14.31245,3.058406 -17.22069,0 -2.90824,-3.058406 -0.71192,-31.7151325 -0.71192,-31.7151325 0,0 0.78689,-34.0121235 -1.6373,-45.5371095 -5.20449,-3.231779 -4.80554,-0.136847 -5.92962,0.977528 -2.94964,7.466215 -1.62934,44.560605 -1.62934,44.560605 0,0 -0.28705,28.620161 -4.70614,32.110443 -4.38027,3.459614 -7.18026,2.518207 -12.14479,-0.420852 -4.96452,-2.93906 -3.48303,-31.6866615 -3.48303,-31.6866615 0,0 0.9149,-40.0943485 -0.31037,-44.1278335 -1.39836,-4.603282 -6.26425,-4.157481 -8.59708,2.141301 -2.33282,6.298783 1.71388,69.52965 -2.40071,73.697806 -4.11459,4.168156 -12.15069,3.787362 -16.48305,-0.652044 -4.33235,-4.439407 -3.48037,-31.0563405 -3.48037,-31.0563405 0,0 1.6364,-26.7722235 -1.01745,-39.3861835 -2.65386,-12.613959 -6.39169,-9.125761 -9.43677,3.331119 -3.04508,12.45688 -2.27909,46.389659 -2.42025,66.921269 l -0.002,0.714844 c 0,41.06511 23.80047,59.93265 53.20703,60.03125 29.40656,0.09856 53.32369,-18.609188 53.46485,-59.673828 0.0706,-20.532323 0.26256,-69.617259 -1.47788,-76.432921 -1.74043,-6.815662 -3.17429,-3.906584 -6.41904,-0.93604 z"
           transform="translate(115.17769,-2.3744979)"
           sodipodi:nodetypes="cczzccccszcszzzczzccsszc" />
      </g>
    </g>
  </g>
</svg>
